<?xml version="1.0" encoding="utf-8"?>
<!-- Generator: Adobe Illustrator 15.0.0, SVG Export Plug-In . SVG Version: 6.00 Build 0)  -->
<!DOCTYPE svg PUBLIC "-//W3C//DTD SVG 1.1//EN" "http://www.w3.org/Graphics/SVG/1.1/DTD/svg11.dtd">
<svg version="1.1" id="Layer_1" xmlns="http://www.w3.org/2000/svg" xmlns:xlink="http://www.w3.org/1999/xlink" x="0px" y="0px"
	 width="20px" height="15.606px" viewBox="390 392.196 20 15.606" enable-background="new 390 392.196 20 15.606"
	 xml:space="preserve">
<path fill="#336600" d="M392.844,407.803h14.583c1.631,0,2.572-0.941,2.572-2.808v-10c0-1.857-0.951-2.799-2.844-2.799h-14.583
	c-1.622,0-2.573,0.933-2.573,2.799v10C390,406.87,390.96,407.803,392.844,407.803z M398.922,400.457l-6.839-6.748
	c0.199-0.082,0.435-0.127,0.716-0.127h14.411c0.281,0,0.525,0.045,0.734,0.145l-6.83,6.73c-0.39,0.39-0.733,0.562-1.096,0.562
	C399.656,401.019,399.312,400.847,398.922,400.457z M391.386,404.995v-10c0-0.063,0-0.036,0-0.09l5.208,5.108l-5.199,5.136
	C391.386,405.104,391.386,405.05,391.386,404.995z M408.614,395.004v10c0,0.036,0,0.082,0,0.118l-5.172-5.109l5.172-5.082
	C408.614,395.004,408.614,395.004,408.614,395.004z M392.799,406.417c-0.263,0-0.48-0.036-0.67-0.117l5.417-5.354l0.589,0.58
	c0.634,0.625,1.241,0.888,1.884,0.888c0.634,0,1.25-0.263,1.884-0.888l0.589-0.58l5.407,5.344c-0.189,0.091-0.426,0.127-0.688,0.127
	H392.799z"/>
</svg>
