<?xml version="1.0" encoding="utf-8"?>
<!-- Generator: Adobe Illustrator 15.0.0, SVG Export Plug-In . SVG Version: 6.00 Build 0)  -->
<!DOCTYPE svg PUBLIC "-//W3C//DTD SVG 1.1//EN" "http://www.w3.org/Graphics/SVG/1.1/DTD/svg11.dtd">
<svg version="1.1" id="Layer_1" xmlns="http://www.w3.org/2000/svg" xmlns:xlink="http://www.w3.org/1999/xlink" x="0px" y="0px"
	 width="39.126px" height="39.125px" viewBox="0 0 39.126 39.125" enable-background="new 0 0 39.126 39.125" xml:space="preserve">
<path fill="#FFFFFF" d="M19.565,0c-5.314,0-5.98,0.022-8.067,0.118C9.415,0.213,7.994,0.542,6.75,1.027
	c-1.287,0.5-2.379,1.168-3.466,2.256C2.196,4.369,1.528,5.461,1.027,6.748c-0.485,1.244-0.815,2.666-0.909,4.748
	C0.024,13.583,0,14.25,0,19.563c0,5.313,0.024,5.979,0.118,8.064c0.096,2.082,0.425,3.504,0.909,4.748
	c0.5,1.285,1.167,2.377,2.256,3.465c1.087,1.088,2.178,1.76,3.464,2.259c1.246,0.483,2.667,0.813,4.75,0.909
	c2.086,0.094,2.752,0.117,8.065,0.117c5.314,0,5.979-0.023,8.064-0.117c2.084-0.096,3.508-0.426,4.75-0.909
	c1.287-0.499,2.379-1.171,3.465-2.259c1.089-1.088,1.757-2.18,2.258-3.465c0.48-1.244,0.811-2.666,0.908-4.748
	c0.095-2.086,0.119-2.752,0.119-8.064c0-5.313-0.024-5.98-0.119-8.067c-0.098-2.082-0.428-3.504-0.908-4.748
	c-0.501-1.287-1.169-2.378-2.258-3.465c-1.088-1.088-2.178-1.757-3.465-2.256c-1.246-0.484-2.67-0.813-4.752-0.909
	C25.539,0.022,24.873,0,19.559,0H19.565z M17.81,3.525c0.521-0.001,1.102,0,1.755,0c5.224,0,5.843,0.019,7.905,0.112
	c1.906,0.087,2.941,0.407,3.632,0.674c0.912,0.354,1.563,0.779,2.248,1.463c0.685,0.685,1.106,1.337,1.464,2.25
	c0.27,0.689,0.587,1.724,0.674,3.631c0.094,2.063,0.113,2.682,0.113,7.903c0,5.221-0.021,5.84-0.113,7.903
	c-0.087,1.906-0.404,2.94-0.674,3.631c-0.354,0.912-0.779,1.563-1.464,2.248c-0.685,0.684-1.336,1.106-2.248,1.462
	c-0.688,0.27-1.726,0.587-3.632,0.674c-2.063,0.094-2.682,0.114-7.905,0.114c-5.223,0-5.843-0.021-7.907-0.114
	c-1.907-0.087-2.942-0.405-3.632-0.674c-0.912-0.354-1.564-0.778-2.25-1.462c-0.684-0.687-1.108-1.336-1.463-2.25
	c-0.269-0.688-0.587-1.725-0.674-3.631c-0.092-2.063-0.112-2.682-0.112-7.906c0-5.224,0.02-5.84,0.112-7.903
	c0.087-1.907,0.406-2.942,0.674-3.632c0.354-0.913,0.779-1.564,1.463-2.25c0.686-0.685,1.337-1.108,2.25-1.463
	c0.69-0.27,1.726-0.587,3.632-0.674c1.807-0.082,2.505-0.107,6.152-0.111V3.525z M30.007,6.774c-1.297,0-2.35,1.049-2.35,2.347
	c0,1.296,1.053,2.347,2.35,2.347c1.296,0,2.349-1.051,2.349-2.347C32.356,7.824,31.303,6.773,30.007,6.774L30.007,6.774z
	 M19.565,9.517c-5.549,0-10.048,4.498-10.048,10.046s4.499,10.045,10.048,10.045c5.547,0,10.045-4.496,10.045-10.045
	S25.112,9.517,19.563,9.517H19.565z M19.565,13.042c3.601,0,6.521,2.919,6.521,6.521c0,3.602-2.92,6.521-6.521,6.521
	c-3.602,0-6.522-2.92-6.522-6.521C13.043,15.961,15.963,13.042,19.565,13.042z"/>
</svg>
