<?xml version="1.0" encoding="utf-8"?>
<!-- Generator: Adobe Illustrator 15.0.0, SVG Export Plug-In . SVG Version: 6.00 Build 0)  -->
<!DOCTYPE svg PUBLIC "-//W3C//DTD SVG 1.1//EN" "http://www.w3.org/Graphics/SVG/1.1/DTD/svg11.dtd">
<svg version="1.1" id="Layer_1" xmlns="http://www.w3.org/2000/svg" xmlns:xlink="http://www.w3.org/1999/xlink" x="0px" y="0px"
	 width="15px" height="20px" viewBox="392.5 389.713 15 20" enable-background="new 392.5 389.713 15 20" xml:space="preserve">
<path fill="#336600" d="M400.071,389.713c-4.1,0-7.571,3.492-7.571,7.627c0,4.332,4.024,8.761,6.731,11.875
	c0.01,0.012,0.448,0.498,0.987,0.498h0.047c0.539,0,0.974-0.486,0.984-0.498c2.54-2.921,6.25-7.736,6.25-11.875
	C407.5,393.204,404.792,389.713,400.071,389.713L400.071,389.713z M400.322,408.376c-0.022,0.021-0.054,0.046-0.082,0.066
	c-0.029-0.02-0.06-0.045-0.083-0.066l-0.327-0.377c-2.566-2.943-6.081-6.976-6.081-10.659c0-3.458,2.896-6.378,6.322-6.378
	c4.268,0,6.179,3.203,6.179,6.378C406.25,400.136,404.255,403.85,400.322,408.376L400.322,408.376z M400.022,393.497
	c-2.071,0-3.75,1.679-3.75,3.75s1.679,3.75,3.75,3.75s3.75-1.679,3.75-3.75C403.772,395.177,402.093,393.497,400.022,393.497
	L400.022,393.497z M400.022,399.747c-1.379,0-2.529-1.148-2.529-2.527s1.121-2.5,2.5-2.5c1.38,0,2.5,1.121,2.5,2.5
	C402.494,398.599,401.401,399.747,400.022,399.747z"/>
</svg>
