<?xml version="1.0" encoding="utf-8"?>
<!-- Generator: Adobe Illustrator 15.0.0, SVG Export Plug-In . SVG Version: 6.00 Build 0)  -->
<!DOCTYPE svg PUBLIC "-//W3C//DTD SVG 1.1//EN" "http://www.w3.org/Graphics/SVG/1.1/DTD/svg11.dtd">
<svg version="1.1" id="Capa_1" xmlns="http://www.w3.org/2000/svg" xmlns:xlink="http://www.w3.org/1999/xlink" x="0px" y="0px"
	 width="20px" height="20px" viewBox="390 390 20 20" enable-background="new 390 390 20 20" xml:space="preserve">
<g>
	<g>
		<path fill="#336600" d="M405.815,402.393c-0.41-0.427-0.905-0.655-1.43-0.655c-0.52,0-1.019,0.225-1.445,0.651l-1.336,1.332
			c-0.109-0.06-0.22-0.114-0.325-0.17c-0.152-0.076-0.296-0.147-0.419-0.224c-1.251-0.795-2.388-1.83-3.479-3.17
			c-0.528-0.668-0.883-1.23-1.141-1.801c0.347-0.317,0.668-0.647,0.98-0.964c0.119-0.119,0.237-0.241,0.355-0.359
			c0.888-0.888,0.888-2.038,0-2.925l-1.154-1.154c-0.131-0.131-0.266-0.266-0.393-0.401c-0.253-0.262-0.52-0.533-0.795-0.786
			c-0.41-0.406-0.9-0.622-1.416-0.622s-1.015,0.216-1.437,0.622c-0.004,0.004-0.004,0.004-0.009,0.008l-1.437,1.45
			c-0.541,0.542-0.85,1.201-0.917,1.966c-0.102,1.234,0.262,2.384,0.541,3.137c0.685,1.847,1.708,3.56,3.234,5.395
			c1.852,2.21,4.08,3.956,6.625,5.187c0.972,0.461,2.27,1.006,3.72,1.099c0.089,0.005,0.182,0.009,0.267,0.009
			c0.977,0,1.796-0.351,2.438-1.049c0.005-0.008,0.013-0.013,0.018-0.021c0.22-0.267,0.474-0.508,0.739-0.766
			c0.182-0.173,0.368-0.354,0.55-0.545c0.419-0.436,0.639-0.942,0.639-1.463c0-0.524-0.225-1.027-0.651-1.45L405.815,402.393z
			 M407.328,406.844C407.324,406.844,407.324,406.849,407.328,406.844c-0.165,0.178-0.334,0.339-0.516,0.517
			c-0.274,0.262-0.554,0.536-0.815,0.845c-0.427,0.457-0.931,0.673-1.59,0.673c-0.063,0-0.131,0-0.194-0.005
			c-1.256-0.08-2.422-0.57-3.297-0.989c-2.393-1.158-4.494-2.803-6.24-4.887c-1.442-1.737-2.405-3.344-3.044-5.068
			c-0.393-1.052-0.537-1.873-0.473-2.646c0.042-0.495,0.232-0.905,0.583-1.256l1.442-1.441c0.207-0.194,0.427-0.3,0.642-0.3
			c0.267,0,0.482,0.161,0.617,0.296c0.004,0.004,0.009,0.008,0.013,0.013c0.258,0.241,0.503,0.49,0.761,0.756
			c0.131,0.135,0.266,0.271,0.401,0.41l1.154,1.154c0.448,0.448,0.448,0.862,0,1.31c-0.123,0.123-0.241,0.245-0.364,0.364
			c-0.355,0.363-0.693,0.702-1.061,1.031c-0.008,0.009-0.017,0.013-0.021,0.021c-0.364,0.363-0.296,0.718-0.22,0.959
			c0.004,0.013,0.008,0.025,0.013,0.038c0.3,0.727,0.723,1.412,1.365,2.228l0.004,0.004c1.167,1.438,2.397,2.558,3.754,3.416
			c0.173,0.109,0.351,0.198,0.52,0.283c0.152,0.076,0.296,0.147,0.418,0.224c0.018,0.009,0.034,0.021,0.051,0.029
			c0.144,0.072,0.279,0.106,0.419,0.106c0.351,0,0.57-0.221,0.643-0.292l1.445-1.446c0.144-0.144,0.372-0.316,0.639-0.316
			c0.262,0,0.478,0.165,0.608,0.309c0.004,0.004,0.004,0.004,0.009,0.008l2.329,2.33C407.76,405.952,407.76,406.396,407.328,406.844
			z"/>
		<path fill="#336600" d="M400.81,394.75c1.107,0.186,2.114,0.71,2.917,1.513c0.804,0.803,1.323,1.81,1.514,2.917
			c0.046,0.279,0.287,0.473,0.563,0.473c0.033,0,0.063-0.004,0.097-0.008c0.313-0.051,0.521-0.347,0.47-0.659
			c-0.229-1.34-0.862-2.562-1.831-3.53c-0.968-0.968-2.189-1.603-3.529-1.831c-0.313-0.051-0.604,0.156-0.66,0.465
			S400.497,394.699,400.81,394.75z"/>
		<path fill="#336600" d="M409.991,398.821c-0.376-2.207-1.416-4.214-3.014-5.813s-3.605-2.638-5.813-3.014
			c-0.309-0.055-0.601,0.157-0.655,0.465c-0.051,0.313,0.156,0.604,0.469,0.659c1.971,0.334,3.767,1.268,5.195,2.693
			c1.43,1.429,2.359,3.226,2.693,5.195c0.047,0.279,0.287,0.474,0.563,0.474c0.033,0,0.063-0.004,0.097-0.009
			C409.835,399.425,410.047,399.129,409.991,398.821z"/>
	</g>
</g>
</svg>
